# xmcd CD database file
#
# Track frame offsets:
#	150
#	15015
#	36392
#	47120
#	82365
#	102480
#	123252
#	158077
#	176552
#	199602
#
# Disc length: 3361 seconds
#
# Revision: 19
# Processed by: cddbd v1.5.2PL0 Copyright (c) Steve Scherf et al.
# Submitted via: CDex 2.21
#
DISCID=7c0d1f0a
DTITLE=John Lee Hooker and Canned Heat - The Best Of John Lee Hooker and Canned Heat
DYEAR=1970
DGENRE=Blues
TTITLE0=You Talk Too Much
TTITLE1=Burning Hell
TTITLE2=Bottle Up And Go
TTITLE3=The World Today
TTITLE4=I Got My Eyes On You
TTITLE5=Whiskey And Wimmen'
TTITLE6=Just You And Me
TTITLE7=Let's Make It
TTITLE8=Peavine
TTITLE9=Boogie Chillen No. 2
EXTD=YEAR: 1970
EXTT0=
EXTT1=
EXTT2=
EXTT3=
EXTT4=
EXTT5=
EXTT6=
EXTT7=
EXTT8=
EXTT9=
PLAYORDER=
